{"title":"Taxi.Driver.1976.BRRip.720p.XviD.AC3 - CODY","uid":6337316,"size":2262560547,"categoryP":"video","categoryS":"hd___movies","magnet":"?xt=urn:btih:104024678ce517731f9e3b8947ea68a74ab8a031&amp;dn=Taxi.Driver.1976.BRRip.720p.XviD.AC3+-+CODY&amp;tr=udp%3A%2F%2Ftracker.openbittorrent.com%3A80&amp;tr=udp%3A%2F%2Fopen.demonii.com%3A1337&amp;tr=udp%3A%2F%2Ftracker.coppersurfer.tk%3A6969&amp;tr=udp%3A%2F%2Fexodus.desync.com%3A6969","seeders":0,"leechers":1,"uploader":"CODYBOSS1969","files":5,"time":1303520337,"description":"General\nComplete name                    : Taxi.Driver.1976.BRRip.720p.XviD.AC3 - CODY.avi\nFormat                           : AVI\nFormat/Info                      : Audio Video Interleave\nFormat profile                   : OpenDML\nFile size                        : 2.11 GiB\nDuration                         : 1h 53mn\nOverall bit rate                 : 2 659 Kbps\nWriting application              : VirtualDubMod 1.5.10.2 (build 2540/release)\nWriting library                  : VirtualDubMod build 2540/release\n\nVideo\nID                               : 0\nFormat                           : MPEG-4 Visual\nFormat profile                   : Advanced Simple@L5\nFormat settings, BVOP            : 2\nFormat settings, QPel            : No\nFormat settings, GMC             : No warppoints\nFormat settings, Matrix          : Default (H.263)\nCodec ID                         : XVID\nCodec ID/Hint                    : XviD\nDuration                         : 1h 53mn\nBit rate                         : 2 199 Kbps\nWidth                            : 1 280 pixels\nHeight                           : 696 pixels\nDisplay aspect ratio             : 16:9\nFrame rate                       : 23.976 fps\nColor space                      : YUV\nChroma subsampling               : 4:2:0\nBit depth                        : 8 bits\nScan type                        : Progressive\nCompression mode                 : Lossy\nBits/(Pixel*Frame)               : 0.103\nStream size                      : 1.75 GiB (83%)\nWriting library                  : XviD 1.2.0.dev47 (UTC 2006-11-01)\n\nAudio\nID                               : 1\nFormat                           : AC-3\nFormat/Info                      : Audio Coding 3\nMode extension                   : CM (complete main)\nCodec ID                         : 2000\nDuration                         : 1h 53mn\nBit rate mode                    : Constant\nBit rate                         : 448 Kbps\nChannel(s)                       : 6 channels\nChannel positions                : Front: L C R, Side: L R, LFE\nSampling rate                    : 48.0 KHz\nBit depth                        : 16 bits\nCompression mode                 : Lossy\nStream size                      : 365 MiB (17%)\nAlignment                        : Aligned on interleaves\nInterleave, duration             : 64 ms (1.53 video frames)\nInterleave, preload duration     : 192 ms\n\n\n\nSubtitles included               :  Romanian\n\n\n\nPlease seed at least 1,5:1. This way this torrent has a chance to survive !\n\n\nThanks. Enjoy !\t\t","torrent":{"xt":"urn:btih:104024678ce517731f9e3b8947ea68a74ab8a031","amp;dn":"Taxi.Driver.1976.BRRip.720p.XviD.AC3+-+CODY","amp;tr":["udp%3A%2F%2Ftracker.openbittorrent.com%3A80","udp%3A%2F%2Fopen.demonii.com%3A1337","udp%3A%2F%2Ftracker.coppersurfer.tk%3A6969","udp%3A%2F%2Fexodus.desync.com%3A6969"],"infoHash":"104024678ce517731f9e3b8947ea68a74ab8a031","infoHashBuffer":{"type":"Buffer","data":[16,64,36,103,140,229,23,115,31,158,59,137,71,234,104,167,74,184,160,49]},"announce":[],"urlList":[]}}